# xmcd
#
# Track frame offsets:
#	150
#	14488
#	28322
#	41361
#	58081
#	74356
#	87194
#	101478
#	113331
#	131983
#	145606
#	161983
#	174733
#	188224
#
# Disc length: 2699
#
# Revision: 2
# Processed by: cddbd v1.5.1PL0 Copyright (c) Steve Scherf et al.
# Submitted via: audiograbber 1.83.01
# Normalized: r1:DSETVAR1
#
DISCID=c40a890e
DTITLE=Various Artist - Golden Volksmusikparade 2002_5
DYEAR=2002
DGENRE=Volksmusik
TTITLE0=Nockalm Quintett - Sieben Lügen jede Nacht
TTITLE1=Die Paldauer - Ich bin da um dich zu lieben
TTITLE2=Vincent and Fernando - Du hast genug geweint
TTITLE3=Marianne Cathomen - Erzähl mir mehr von dir
TTITLE4=Oswald Sattler - Deine Jugend
TTITLE5=Die jungen Zillertaler - Zillertaler Nacht
TTITLE6=Bergfeuer - Companeros
TTITLE7=Klostertaler - Das ist die Freiheit
TTITLE8=Monika Martin - Niemand hält den Wind
TTITLE9=Judith and Mel - Liebe kann ein Wunder sein
TTITLE10=Die Edlseer - Frauenpower
TTITLE11=Michael Klostermann and seine Musikanten - Egerländer Blasmusik
TTITLE12=Alpentrio Tirol - Mein Edelstein
TTITLE13=Dolomitensextett Lienz - Bergsteig'n is supersteil
EXTD=
EXTT0=
EXTT1=
EXTT2=
EXTT3=
EXTT4=
EXTT5=
EXTT6=
EXTT7=
EXTT8=
EXTT9=
EXTT10=
EXTT11=
EXTT12=
EXTT13=
PLAYORDER=
